<?xml version="1.0" encoding="UTF-8" standalone="no"?>
<svg
   id="svg"
   version="1.1"
   width="347.629"
   height="244.84085"
   viewBox="0 0 347.629 244.84085"
   sodipodi:docname="d-tacq_logo_tight.svg"
   inkscape:version="1.1 (c68e22c387, 2021-05-23)"
   xmlns:inkscape="http://www.inkscape.org/namespaces/inkscape"
   xmlns:sodipodi="http://sodipodi.sourceforge.net/DTD/sodipodi-0.dtd"
   xmlns="http://www.w3.org/2000/svg"
   xmlns:svg="http://www.w3.org/2000/svg">
  <defs
     id="defs7" />
  <sodipodi:namedview
     id="namedview5"
     pagecolor="#ffffff"
     bordercolor="#666666"
     borderopacity="1.0"
     inkscape:pageshadow="2"
     inkscape:pageopacity="0.0"
     inkscape:pagecheckerboard="false"
     showgrid="false"
     fit-margin-bottom="30"
     fit-margin-top="0"
     fit-margin-left="0"
     fit-margin-right="0"
     inkscape:zoom="10.58"
     inkscape:cx="127.93006"
     inkscape:cy="228.30813"
     inkscape:window-width="2560"
     inkscape:window-height="1387"
     inkscape:window-x="-8"
     inkscape:window-y="-8"
     inkscape:window-maximized="1"
     inkscape:current-layer="svg"
     height="274.84085px" />
  <g
     id="svgg"
     transform="translate(-30.803,-19.386666)">
    <path
       id="path0"
       d="m 141,19.5 c -39.394,2.41 -70.338,15.141 -84.164,34.626 -4.84,6.822 -7.755,15.083 -7.755,21.981 v 1.875 H 64.64 80.199 l 0.074,-0.385 c 0.041,-0.211 0.275,-1.695 0.52,-3.298 4.787,-31.318 27.919,-51.053 62.057,-52.944 22.82,-1.263 40.813,4.229 54.489,16.632 2.876,2.609 7.877,8.345 7.877,9.037 0,0.206 -4.534,0.345 -11.458,0.351 -5.944,0.006 -6.551,0.032 -6.242,0.268 1.199,0.917 46.98,30.679 47.088,30.612 0.074,-0.046 4.054,-5.328 8.844,-11.74 4.791,-6.411 9.991,-13.368 11.554,-15.459 l 2.844,-3.804 -10.837,-0.096 -10.837,-0.096 -2.182,-1.614 C 213.649,30.4 190.681,22.057 163.232,19.74 159.461,19.422 144.855,19.264 141,19.5 m 82.502,79.303 -8.111,11.586 -0.085,3.506 -0.086,3.506 -2.907,0.051 -2.907,0.052 -10.09,14.213 c -5.549,7.818 -10.383,14.624 -10.741,15.126 l -0.65,0.912 h 12.455 12.456 l -1.317,-12.184 c -0.724,-6.702 -1.364,-12.55 -1.422,-12.997 l -0.105,-0.813 h 2.999 c 1.649,0 2.999,0.027 2.999,0.059 0,0.058 1.691,15.763 2.423,22.5 l 0.379,3.491 19.41,-0.118 c 10.676,-0.065 19.442,-0.15 19.481,-0.189 0.04,-0.039 -0.629,-5.405 -1.485,-11.924 -0.857,-6.518 -2.596,-19.778 -3.865,-29.466 -1.269,-9.688 -2.353,-17.903 -2.41,-18.256 l -0.103,-0.641 h -9.104 -9.103 l -8.111,11.586 M 48.332,88.97 c -0.234,0.776 -4.167,13.993 -8.738,29.371 -4.571,15.379 -8.419,28.288 -8.551,28.688 l -0.24,0.728 17.205,-0.043 17.204,-0.044 2.882,-9.491 c 1.585,-5.22 3.489,-11.492 4.23,-13.938 C 77.299,107.834 83.343,87.952 83.41,87.773 83.475,87.602 79.947,87.559 66.125,87.559 H 48.759 l -0.427,1.411 m 35.223,15.393 c -5.744,18.863 -12.979,42.585 -13.174,43.197 l -0.129,0.402 3.48,-0.076 c 10.692,-0.235 23.665,-5.895 31.505,-13.746 10.104,-10.118 13.394,-26.4 7.377,-36.51 -3.85,-6.469 -11.559,-10.077 -21.515,-10.069 l -2.429,0.002 -5.115,16.8 m 98.092,-4.823 c -7.085,2.234 -12.904,4.088 -12.932,4.12 -0.388,0.448 -9.23,31.59 -9.293,32.73 -0.301,5.403 3.64,9.266 11.344,11.123 1.445,0.348 8.227,0.921 8.379,0.708 0.015,-0.021 2.757,-9.388 6.095,-20.816 l 6.069,-20.778 3.776,-0.086 c 2.076,-0.047 3.809,-0.124 3.85,-0.171 0.102,-0.117 0.979,-2.457 0.979,-2.611 0,-0.069 -1.731,-0.125 -3.847,-0.125 -2.117,0 -3.848,-0.028 -3.848,-0.063 0,-0.035 0.535,-1.86 1.19,-4.055 0.655,-2.195 1.174,-4.001 1.154,-4.014 -0.019,-0.012 -5.832,1.805 -12.916,4.038 m 113.949,3.528 c -13.013,0.859 -23.647,8.594 -27.581,20.062 -4.529,13.201 0.149,22.358 12.361,24.195 10.499,1.58 22.36,-2.557 28.793,-10.042 1.544,-1.796 1.542,-1.785 0.462,-2.195 l -0.843,-0.32 -1.551,1.499 c -6.817,6.59 -14.972,10.137 -20.887,9.085 -1.725,-0.307 -1.622,-0.192 -1.26,-1.407 1.624,-5.47 12.008,-40.165 12.128,-40.525 0.146,-0.439 0.126,-0.468 -0.305,-0.439 -0.254,0.017 -0.846,0.056 -1.317,0.087 m 13.75,0.462 c -9.78,2.812 -12.823,16.871 -3.789,17.505 8.046,0.565 15.423,-10.48 10.635,-15.92 -1.39,-1.579 -4.423,-2.281 -6.846,-1.585 m 35.367,0.193 c -11.188,1.354 -19.907,7.554 -24.744,17.597 -6.886,14.294 -1.103,25.729 13.26,26.217 l 2.746,0.093 1.126,-3.742 c 0.619,-2.059 3.297,-10.938 5.949,-19.732 2.653,-8.795 5.124,-16.988 5.491,-18.207 0.368,-1.219 0.668,-2.277 0.668,-2.351 0,-0.198 -2.373,-0.131 -4.496,0.125 m 9.366,0.125 c -0.216,0.587 -16.328,55.553 -16.328,55.703 0,0.118 3.964,0.175 12.135,0.175 h 12.135 l 0.339,-1.154 c 0.187,-0.635 3.772,-12.929 7.966,-27.319 4.194,-14.391 7.734,-26.492 7.866,-26.892 l 0.24,-0.727 h -12.137 c -9.554,0 -12.154,0.046 -12.216,0.214 m -236.08,12.346 c 0,0.041 0.153,0.335 0.341,0.653 2.582,4.377 0.524,11.672 -4.874,17.27 l -0.619,0.641 h 20.376 c 11.206,0 20.349,-0.057 20.317,-0.128 -0.032,-0.07 -0.313,-0.617 -0.624,-1.215 -2.79,-5.356 -0.67,-11.995 5.353,-16.759 l 0.68,-0.538 h -20.475 c -11.261,0 -20.475,0.034 -20.475,0.076 m -63.555,44.259 c -1.206,1.623 -6.412,8.596 -11.569,15.496 -5.157,6.899 -9.346,12.575 -9.308,12.613 0.037,0.037 4.893,0.118 10.791,0.18 l 10.723,0.113 1.233,0.928 c 14.04,10.574 31.824,19.004 47.32,22.43 1.27,0.281 3.348,0.749 4.617,1.04 34.177,7.845 79.867,1.733 106.456,-14.241 16.39,-9.847 26.08,-24.34 26.08,-39.008 v -2.501 h -15.55 -15.55 l -0.114,0.984 c -3.136,27.002 -18.185,44.681 -44.582,52.374 -29.99,8.741 -62.239,0.327 -77.79,-20.294 -1.585,-2.1 -1.817,-1.939 2.795,-1.94 2.187,0 6.233,-0.051 8.992,-0.113 l 5.016,-0.113 -2.622,-1.711 c -1.442,-0.94 -9.163,-5.981 -17.158,-11.2 -23.608,-15.413 -27.181,-17.744 -27.389,-17.869 -0.124,-0.074 -1.014,0.979 -2.391,2.832 m 62.7,70.179 c 0,0.135 10.25,12.961 10.404,13.019 0.087,0.033 5.173,-11.286 5.764,-12.826 0.108,-0.282 -0.343,-0.299 -8.026,-0.299 -4.478,0 -8.142,0.048 -8.142,0.106 m 133.638,0.077 c -4.894,0.579 -8.233,3.59 -6.155,5.55 2.715,2.56 11.309,1.023 12.691,-2.272 0.895,-2.134 -2.367,-3.77 -6.536,-3.278 m -142.531,0.596 c -7.732,1.659 -13.778,9.794 -11.912,16.028 0.398,1.33 12.337,15.73 13.473,16.25 5.259,2.406 16.225,-6.524 16.225,-13.214 0,-1.812 -0.053,-1.897 -6.706,-10.791 l -6.377,-8.525 -1.795,0.007 c -0.988,0.003 -2.296,0.113 -2.908,0.245 m 56.606,15.893 c -3.904,8.882 -7.122,16.268 -7.153,16.413 -0.074,0.355 13.329,0.404 13.604,0.049 0.09,-0.118 3.189,-7.371 6.884,-16.118 3.696,-8.748 6.789,-16.039 6.873,-16.204 0.146,-0.282 -0.216,-0.299 -6.478,-0.294 l -6.633,0.005 -7.097,16.149 m 64.215,-9.809 c -3.856,1.224 -7.099,2.316 -7.205,2.427 -0.268,0.278 -7.342,16.286 -7.571,17.131 -1.176,4.343 2.155,7.37 7.954,7.231 l 2.019,-0.048 4.909,-11.372 4.91,-11.373 1.96,-0.048 1.96,-0.048 0.32,-0.806 c 0.177,-0.444 0.346,-0.862 0.376,-0.93 0.03,-0.068 -0.826,-0.145 -1.904,-0.172 l -1.96,-0.048 0.75,-1.941 c 0.77,-1.994 0.843,-2.256 0.622,-2.238 -0.07,0.005 -3.283,1.011 -7.14,2.235 m 104.647,2.11 c -4.547,1.053 -7.887,3.435 -9.61,6.852 -2.577,5.113 -1.158,8.803 4.035,10.487 4.292,1.392 5.349,3.55 2.966,6.059 l -0.969,1.021 1.796,-0.09 c 3.071,-0.155 6.791,-1.734 9.088,-3.86 4.71,-4.359 4.274,-11.576 -0.817,-13.524 -4.405,-1.684 -5.819,-3.93 -4.093,-6.495 l 0.587,-0.872 -0.63,0.011 c -0.346,0.007 -1.405,0.192 -2.353,0.411 m 11.129,-0.195 c -3.171,1.243 -5.106,5.317 -3.047,6.414 2.102,1.119 6.051,-2.003 6.093,-4.817 0.023,-1.508 -1.388,-2.247 -3.046,-1.597 m -200.94,0.132 c -5.152,0.459 -9.853,3.342 -13.228,8.111 -5.564,7.863 -4.56,14.401 2.492,16.229 1.097,0.284 3.064,0.357 3.427,0.126 0.178,-0.113 10.858,-24.346 10.76,-24.414 -0.185,-0.129 -2.238,-0.161 -3.451,-0.052 m 6.504,0.367 c -0.129,0.306 -2.543,5.856 -5.365,12.334 l -5.131,11.778 2.509,-0.087 c 6.465,-0.224 11.488,-3.391 15.246,-9.611 3.401,-5.63 3.515,-9.948 0.338,-12.818 -2.086,-1.885 -7.039,-2.925 -7.597,-1.596 m 118.592,-0.184 c -6.483,0.925 -12.581,6.559 -15.756,14.558 -2.057,5.182 1.437,9.289 8.135,9.562 l 1.186,0.049 2.281,-5.301 c 2.63,-6.116 7.639,-17.905 7.901,-18.598 l 0.178,-0.47 -1.407,0.021 c -0.774,0.011 -1.907,0.092 -2.518,0.179 m -82.821,1.039 c -0.235,0.588 -1.824,4.401 -3.53,8.474 -1.706,4.073 -3.169,7.767 -3.253,8.209 -0.446,2.365 0.913,4.49 3.721,5.817 1.48,0.7 6.179,1.079 6.406,0.517 0.051,-0.126 2.339,-5.501 5.085,-11.943 2.745,-6.443 5.031,-11.811 5.08,-11.929 0.07,-0.169 -1.296,-0.213 -6.496,-0.213 h -6.584 l -0.429,1.068 m 19.836,-0.904 -2.874,0.092 -5.208,11.714 c -2.864,6.443 -5.251,11.85 -5.304,12.014 -0.089,0.282 0.291,0.299 6.38,0.299 h 6.474 l 5.393,-12.013 5.393,-12.014 -0.441,-0.108 c -0.511,-0.125 -5.651,-0.117 -9.813,0.016 m 82.649,11.837 c -2.847,6.507 -5.213,11.971 -5.258,12.142 -0.077,0.297 0.218,0.311 6.396,0.311 h 6.477 l 5.092,-11.885 c 2.8,-6.537 5.136,-12 5.19,-12.142 0.086,-0.225 -0.682,-0.256 -6.311,-0.256 h -6.41 l -5.176,11.83 m 20.954,-11.275 c -0.13,0.306 -2.431,5.751 -5.112,12.1 l -4.876,11.543 6.35,0.045 c 3.493,0.025 6.413,-0.018 6.489,-0.094 0.077,-0.077 1.889,-4.137 4.029,-9.023 l 3.889,-8.884 10e-4,-1.625 c 0.003,-3.643 -1.52,-4.617 -7.217,-4.617 h -3.316 l -0.237,0.555 m -67.882,-0.234 c -0.072,0.117 -9.766,22.661 -10.138,23.578 -0.068,0.168 1.277,0.213 6.392,0.213 h 6.478 l 4.955,-11.813 c 2.725,-6.497 4.981,-11.884 5.012,-11.971 0.074,-0.204 -12.573,-0.211 -12.699,-0.007 m 34.137,0.131 c -0.511,0.955 -10.122,23.593 -10.122,23.842 0,0.445 4.046,-0.033 6.155,-0.727 4.01,-1.319 7.762,-4.246 10.371,-8.091 5.304,-7.815 4.558,-12.73 -2.229,-14.697 -2.111,-0.612 -3.946,-0.755 -4.175,-0.327 M 90.142,256.989 c -1.538,3.551 -2.834,6.553 -2.879,6.671 -0.066,0.169 1.684,0.213 8.401,0.213 4.666,0 8.483,-0.039 8.483,-0.087 0,-0.125 -10.937,-13.157 -11.086,-13.21 -0.068,-0.024 -1.381,2.862 -2.919,6.413 m 231.771,0.398 c -2.337,0.899 -4.061,4.003 -3.159,5.689 0.866,1.619 3.677,1.288 5.456,-0.643 2.849,-3.09 1.325,-6.439 -2.297,-5.046"
       stroke="none"
       fill="#0033ab"
       fill-rule="evenodd" />
  </g>
</svg>
